<?xml version="1.0" encoding="UTF-8" standalone="no"?>
<!-- Created with Inkscape (http://www.inkscape.org/) -->

<svg
   xmlns:dc="http://purl.org/dc/elements/1.1/"
   xmlns:cc="http://creativecommons.org/ns#"
   xmlns:rdf="http://www.w3.org/1999/02/22-rdf-syntax-ns#"
   xmlns:svg="http://www.w3.org/2000/svg"
   xmlns="http://www.w3.org/2000/svg"
   xmlns:xlink="http://www.w3.org/1999/xlink"
   xmlns:sodipodi="http://sodipodi.sourceforge.net/DTD/sodipodi-0.dtd"
   xmlns:inkscape="http://www.inkscape.org/namespaces/inkscape"
   width="90.343933mm"
   height="39.613708mm"
   viewBox="0 0 90.343933 39.613709"
   version="1.1"
   id="svg8"
   inkscape:version="0.92.3 (2405546, 2018-03-11)"
   sodipodi:docname="ElViSLogo.svg">
  <defs
     id="defs2" />
  <sodipodi:namedview
     id="base"
     pagecolor="#ffffff"
     bordercolor="#666666"
     borderopacity="1.0"
     inkscape:pageopacity="0.0"
     inkscape:pageshadow="2"
     inkscape:zoom="1.4142136"
     inkscape:cx="225.98752"
     inkscape:cy="148.01836"
     inkscape:document-units="mm"
     inkscape:current-layer="text4669"
     showgrid="false"
     showguides="true"
     inkscape:guide-bbox="true"
     fit-margin-top="0"
     fit-margin-left="0"
     fit-margin-right="0"
     fit-margin-bottom="0"
     inkscape:window-width="1920"
     inkscape:window-height="1137"
     inkscape:window-x="-8"
     inkscape:window-y="-8"
     inkscape:window-maximized="1">
    <inkscape:grid
       type="xygrid"
       id="grid4520"
       originx="38.614616"
       originy="0.57537807" />
  </sodipodi:namedview>
  <metadata
     id="metadata5">
    <rdf:RDF>
      <cc:Work
         rdf:about="">
        <dc:format>image/svg+xml</dc:format>
        <dc:type
           rdf:resource="http://purl.org/dc/dcmitype/StillImage" />
        <dc:title></dc:title>
      </cc:Work>
    </rdf:RDF>
  </metadata>
  <g
     inkscape:label="Ebene 1"
     inkscape:groupmode="layer"
     id="layer1"
     transform="translate(38.614618,-257.96167)">
    <path
       style="fill:none;stroke:#000000;stroke-width:2.86500001;stroke-linecap:square;stroke-linejoin:miter;stroke-miterlimit:4;stroke-dasharray:none;stroke-opacity:1"
       d="M 24.336184,296.14288 V 285.87369 H 18.39945 v -11.98073 m 5.936734,11.98073 h 5.936727 v -11.98073 m -8.047903,1.94038 h 3.968752 m -1.857576,0 v -3.65191 -8.55766"
       id="path4518-6-4"
       inkscape:connector-curvature="0"
       sodipodi:nodetypes="cccccccccccc"
       inkscape:transform-center-x="17.725376"
       inkscape:transform-center-y="2.0783141" />
    <path
       style="fill:none;stroke:#000000;stroke-width:2.79999995;stroke-linecap:square;stroke-linejoin:miter;stroke-miterlimit:4;stroke-dasharray:none;stroke-opacity:1"
       d="m -13.539879,295.86649 v -5.89368 l -2.221764,-1.2596 4.443523,-2.5192 -4.443525,-2.51917 4.443525,-2.5192 -4.443525,-2.51919 4.443525,-2.51919 -4.443523,-2.51919 4.443523,-2.51919 -4.443525,-2.51919 4.443525,-2.51918 -2.221759,-1.25961 v -5.41923"
       id="path4518-61"
       inkscape:connector-curvature="0"
       sodipodi:nodetypes="cccccccccccccc" />
    <text
       xml:space="preserve"
       style="font-style:normal;font-weight:normal;font-size:163.59683228px;line-height:1.25;font-family:sans-serif;text-align:center;letter-spacing:0px;word-spacing:0px;text-anchor:middle;fill:#81c98b;fill-opacity:1;stroke:none;stroke-width:0.26458338"
       x="51.053242"
       y="131.33853"
       id="text4661"
       transform="scale(0.93659234,1.0677004)"><tspan
         sodipodi:role="line"
         id="tspan4659"
         x="51.053242"
         y="131.33853"
         style="font-style:normal;font-variant:normal;font-weight:normal;font-stretch:normal;font-family:'Baskerville Old Face';-inkscape-font-specification:'Baskerville Old Face';fill:#81c98b;fill-opacity:1;stroke-width:0.26458338">E</tspan></text>
    <path
       style="fill:none;stroke:#000000;stroke-width:2.86500001;stroke-linecap:round;stroke-linejoin:round;stroke-miterlimit:4;stroke-dasharray:none;stroke-opacity:1"
       d="m 20.13134,45.645833 h 13.45924 l 2.990942,-13.229166 5.981884,26.458324 5.981884,-26.45833 5.981884,26.45833 5.981884,-26.45833 5.981884,26.45833 5.981884,-26.458324 5.981886,26.458324 5.981882,-26.45833 5.981882,26.45833 2.990944,-13.229158 h 12.42391"
       id="path4518"
       inkscape:connector-curvature="0"
       sodipodi:nodetypes="cccccccccccccc" />
    <path
       style="fill:none;stroke:#000000;stroke-width:2.86500001;stroke-linecap:round;stroke-linejoin:round;stroke-miterlimit:4;stroke-dasharray:none;stroke-opacity:1"
       d="M 20.13134,82.6875 H 36.006343 V 69.458328 l 18.52083,6e-6 M 36.006343,82.6875 v 13.229158 h 18.52083 M 46.589673,74.75 v 15.875 m 0,-7.9375 h 10.58333 13.22917"
       id="path4518-6"
       inkscape:connector-curvature="0"
       sodipodi:nodetypes="cccccccccccc"
       inkscape:transform-center-x="3.2127976"
       inkscape:transform-center-y="-39.498512" />
    <path
       style="fill:none;stroke:#000000;stroke-width:2.86500001;stroke-linecap:round;stroke-linejoin:round;stroke-miterlimit:4;stroke-dasharray:none;stroke-opacity:1"
       d="M 20.13134,119.72917 H 35.43116 L 38.422102,106.5 l 5.981885,26.45832 5.981884,-26.45833 5.981883,26.45833 5.981886,-26.45833 5.981882,26.45833 5.981885,-26.45832 5.981886,26.45832 5.981882,-26.45833 5.981883,26.45833 L 95.25,119.72917 h 10.58333"
       id="path4518-3"
       inkscape:connector-curvature="0"
       sodipodi:nodetypes="cccccccccccccc" />
    <path
       style="fill:none;stroke:#000000;stroke-width:3.56499982;stroke-linecap:round;stroke-linejoin:miter;stroke-miterlimit:4;stroke-dasharray:none;stroke-opacity:1"
       d="M 20.461116,27.99878 V 137.37622"
       id="path4571"
       inkscape:connector-curvature="0" />
    <path
       style="fill:none;stroke:#000000;stroke-width:2.46499991;stroke-linecap:round;stroke-linejoin:miter;stroke-miterlimit:4;stroke-dasharray:none;stroke-opacity:1"
       d="M 19.84375,28.447918 9.2604166,35.062501"
       id="path4573"
       inkscape:connector-curvature="0"
       inkscape:tile-cx="14.552083"
       inkscape:tile-cy="31.755209"
       inkscape:tile-w="13.078142"
       inkscape:tile-h="9.0983056"
       inkscape:tile-x0="8.0130121"
       inkscape:tile-y0="27.206056" />
    <use
       x="0"
       y="0"
       inkscape:tiled-clone-of="#path4573"
       xlink:href="#path4573"
       id="use4635"
       width="100%"
       height="100%" />
    <use
       x="0"
       y="0"
       inkscape:tiled-clone-of="#path4573"
       xlink:href="#path4573"
       transform="translate(0,9.0710107)"
       id="use4637"
       width="100%"
       height="100%" />
    <use
       x="0"
       y="0"
       inkscape:tiled-clone-of="#path4573"
       xlink:href="#path4573"
       transform="translate(0,18.142021)"
       id="use4639"
       width="100%"
       height="100%" />
    <use
       x="0"
       y="0"
       inkscape:tiled-clone-of="#path4573"
       xlink:href="#path4573"
       transform="translate(0,27.213032)"
       id="use4641"
       width="100%"
       height="100%" />
    <use
       x="0"
       y="0"
       inkscape:tiled-clone-of="#path4573"
       xlink:href="#path4573"
       transform="translate(0,36.284043)"
       id="use4643"
       width="100%"
       height="100%" />
    <use
       x="0"
       y="0"
       inkscape:tiled-clone-of="#path4573"
       xlink:href="#path4573"
       transform="translate(0,45.355053)"
       id="use4645"
       width="100%"
       height="100%" />
    <use
       x="0"
       y="0"
       inkscape:tiled-clone-of="#path4573"
       xlink:href="#path4573"
       transform="translate(0,54.426064)"
       id="use4647"
       width="100%"
       height="100%" />
    <use
       x="0"
       y="0"
       inkscape:tiled-clone-of="#path4573"
       xlink:href="#path4573"
       transform="translate(0,63.497075)"
       id="use4649"
       width="100%"
       height="100%" />
    <use
       x="0"
       y="0"
       inkscape:tiled-clone-of="#path4573"
       xlink:href="#path4573"
       transform="translate(0,72.568085)"
       id="use4651"
       width="100%"
       height="100%" />
    <use
       x="0"
       y="0"
       inkscape:tiled-clone-of="#path4573"
       xlink:href="#path4573"
       transform="translate(0,81.639096)"
       id="use4653"
       width="100%"
       height="100%" />
    <use
       x="0"
       y="0"
       inkscape:tiled-clone-of="#path4573"
       xlink:href="#path4573"
       transform="translate(0,90.710107)"
       id="use4655"
       width="100%"
       height="100%" />
    <use
       x="0"
       y="0"
       inkscape:tiled-clone-of="#path4573"
       xlink:href="#path4573"
       transform="translate(0,99.781118)"
       id="use4657"
       width="100%"
       height="100%" />
    <text
       xml:space="preserve"
       style="font-style:normal;font-weight:normal;font-size:77.30083466px;line-height:1.25;font-family:sans-serif;text-align:center;letter-spacing:0px;word-spacing:0px;text-anchor:middle;fill:#000000;fill-opacity:1;stroke:none;stroke-width:0.26458332"
       x="173.56564"
       y="76.904648"
       id="text4665"><tspan
         sodipodi:role="line"
         id="tspan4663"
         x="173.56564"
         y="76.904648"
         style="font-style:normal;font-variant:normal;font-weight:normal;font-stretch:normal;font-family:'Baskerville Old Face';-inkscape-font-specification:'Baskerville Old Face';stroke-width:0.26458332">lViS</tspan></text>
    <g
       aria-label="EiiViiS"
       style="font-style:normal;font-weight:normal;font-size:21.03718376px;line-height:1.25;font-family:sans-serif;text-align:start;letter-spacing:0px;word-spacing:0px;text-anchor:start;fill:#000000;fill-opacity:1;stroke:none;stroke-width:0.26458329"
       id="text4669">
      <path
         d="m -25.708342,297.27811 h -12.906276 v -39.29635 h 12.75562 v 3.08847 h -9.265401 v 14.66394 h 8.436787 v 3.13868 h -8.436787 v 15.31679 h 9.416057 z"
         style="font-style:normal;font-variant:normal;font-weight:normal;font-stretch:normal;font-size:51.42422867px;font-family:'Agency FB';-inkscape-font-specification:'Agency FB';text-align:start;text-anchor:start;stroke-width:0.26458329"
         id="path4726"
         inkscape:connector-curvature="0" />
      <path
         d="M 13.38713,257.98176 6.5824588,297.37854 H 3.2931161 l -6.8046709,-39.39678 h 3.46510916 l 4.87124044,31.28642 q 0,0 0.1506569,2.56117 0.02511,-0.87883 0.1757664,-2.56117 l 4.8712409,-31.28642 z"
         style="font-style:normal;font-variant:normal;font-weight:normal;font-stretch:normal;font-size:51.42422867px;font-family:'Agency FB';-inkscape-font-specification:'Agency FB';text-align:start;text-anchor:start;stroke-width:0.26458329"
         id="path4732"
         inkscape:connector-curvature="0" />
      <path
         d="m 51.729315,294.49095 q 0,1.23037 -0.778395,2.00876 -0.753284,0.7784 -1.983649,0.7784 h -9.893138 q -1.230365,0 -2.033868,-0.7784 -0.778394,-0.77839 -0.778394,-2.00876 v -9.96846 h 3.490218 v 9.66715 h 8.487007 V 284.8238 L 37.391798,271.71665 q -1.129927,-1.35591 -1.129927,-2.98803 v -7.95971 q 0,-1.23036 0.778394,-2.00876 0.803503,-0.77839 2.033868,-0.77839 h 9.893138 q 1.230365,0 1.983649,0.77839 0.778395,0.7784 0.778395,2.00876 v 9.13986 h -3.490219 v -8.83854 h -8.487007 v 8.28613 l 10.897518,13.10715 q 1.079708,1.30569 1.079708,2.93781 z"
         style="font-style:normal;font-variant:normal;font-weight:normal;font-stretch:normal;font-size:51.42422867px;font-family:'Agency FB';-inkscape-font-specification:'Agency FB';text-align:start;text-anchor:start;stroke-width:0.26458329"
         id="path4738"
         inkscape:connector-curvature="0" />
    </g>
  </g>
</svg>
